<svg id="Layer_1" data-name="Layer 1" xmlns="http://www.w3.org/2000/svg" viewBox="0 0 666.51 99.33"><defs><style>.cls-1{font-size:101.31px;}.cls-1,.cls-4{fill:#4398d1;font-family:ArialRoundedMTBold, Arial Rounded MT Bold;}.cls-2{letter-spacing:-0.02em;}.cls-3{letter-spacing:0em;}.cls-4{font-size:85.32px;}.cls-5{fill:#ffd56e;}</style></defs><title>wishagugu</title><text class="cls-1" transform="translate(10.36 88.26)">W SH<tspan class="cls-2" x="264.91" y="0">A</tspan><tspan class="cls-3" x="335.25" y="0">GUGU</tspan></text><text class="cls-4" transform="matrix(0.56, 0.13, -0.23, 0.97, 100.58, 86.47)">I</text><path class="cls-5" d="M121.23,17.54l4.09-6.06s.44-.49.81-.41.75.1.89.44,1.3,7.57,1.3,7.57l7,1.53s1,.57.93,1.12,0,.94-.67,1.39S129.81,26,129.81,26s-.5.11-.46.38.17,2.23.17,2.33.12,2.46.12,2.92a7.9,7.9,0,0,1-.27,2.22c-.19.36-.76,1.11-1.81.19l-1-.92-3.69-3.5s-.27-.61-1-.23-.82.4-.82.4l-3.55,1.27-1.89.5s-1.18.42-1.22-.53a5.24,5.24,0,0,1,.73-2.71c.49-1,2-3.75,2-3.75a1,1,0,0,0,.12-1.36c-.59-.68-2.91-3.67-2.91-3.67l-1-1.2s-1.07-1.11.48-2.22Z"/></svg>